<?xml version="1.0" standalone="no"?>
<!DOCTYPE svg PUBLIC "-//W3C//DTD SVG 20010904//EN"
 "http://www.w3.org/TR/2001/REC-SVG-20010904/DTD/svg10.dtd">
<svg version="1.0" xmlns="http://www.w3.org/2000/svg"
 width="512.000000pt" height="512.000000pt" viewBox="0 0 512.000000 512.000000"
 preserveAspectRatio="xMidYMid meet">
<metadata>
Created by potrace 1.14, written by Peter Selinger 2001-2017
</metadata>
<g transform="translate(0.000000,512.000000) scale(0.100000,-0.100000)"
fill="#000000" stroke="none">
<path d="M858 5100 c-228 -48 -399 -139 -554 -296 -77 -78 -167 -205 -207
-295 -27 -59 -72 -199 -84 -259 -3 -19 -8 -766 -9 -1660 -3 -1782 -6 -1709 56
-1884 89 -251 262 -453 502 -585 73 -40 245 -97 323 -108 74 -10 3294 -11
3352 -1 409 70 739 370 851 774 l27 99 0 1670 c0 1609 -1 1673 -19 1745 -54
212 -139 363 -286 510 -137 138 -289 226 -479 278 l-96 27 -1645 2 c-1562 1
-1649 1 -1732 -17z"/>
</g>
</svg>
