<svg viewBox="0 0 800 800"><path d="M88.63,228.84c1.68.66,41.45,16.31,69.62,24.26a298.1,298.1,0,0,0,81.65,11.31c60.5,0,115.67-17.65,169.55-34.88,71.53-22.89,139.1-44.5,215.47-23,25.1,7.08,63.21,22.07,63.7,22.27a31,31,0,0,0,22.76-57.68c-1.68-.66-41.46-16.31-69.63-24.26-94.31-26.61-174.07-1.1-251.2,23.57-71.53,22.89-139.1,44.5-215.47,23-25.14-7.09-63.32-22.12-63.71-22.27a31,31,0,0,0-22.74,57.68Z"/><path d="M711.37,371.16c-1.68-.66-41.45-16.31-69.62-24.26-94.31-26.61-174.07-1.1-251.2,23.57-71.53,22.89-139.11,44.5-215.47,23-25.14-7.09-63.33-22.12-63.71-22.27a31,31,0,1,0-22.74,57.68c1.68.66,41.45,16.31,69.62,24.26a298.1,298.1,0,0,0,81.65,11.31c60.51,0,115.67-17.65,169.54-34.88,71.54-22.89,139.12-44.5,215.48-23,25.1,7.08,63.22,22.08,63.71,22.27a31,31,0,0,0,22.74-57.68Z"/><path d="M711.37,571.16c-1.68-.66-41.45-16.31-69.62-24.26-94.31-26.61-174.07-1.1-251.2,23.57-71.53,22.89-139.1,44.5-215.47,23-25.14-7.09-63.33-22.12-63.71-22.27a31,31,0,1,0-22.74,57.68c1.68.66,41.45,16.31,69.62,24.26a298.1,298.1,0,0,0,81.65,11.31c60.51,0,115.67-17.65,169.54-34.88,71.54-22.89,139.12-44.5,215.48-23,25.1,7.08,63.22,22.08,63.71,22.27a31,31,0,0,0,22.74-57.68Z"/></svg>
