<svg id="Слой_1" data-name="Слой 1" xmlns="http://www.w3.org/2000/svg" viewBox="0 0 800 800"><title>wind</title><path d="M616.67,442h-550a31,31,0,1,0,0,62h550A85.67,85.67,0,1,1,531,589.67V573a31,31,0,0,0-62,0v16.67c0,81.42,66.24,147.66,147.67,147.66s147.66-66.24,147.66-147.66S698.09,442,616.67,442Z"/><path d="M66.67,404h550c81.42,0,147.66-66.24,147.66-147.67A148.21,148.21,0,0,0,616.67,108.67C535.24,108.67,469,174.91,469,256.33V273a31,31,0,0,0,62,0V256.33A85.52,85.52,0,1,1,616.67,342h-550a31,31,0,0,0,0,62Z"/><path d="M66.67,304H310.33A120.67,120.67,0,1,0,189.67,183.33V196a31,31,0,0,0,62,0V183.33A58.67,58.67,0,1,1,310.33,242H66.67a31,31,0,0,0,0,62Z"/></svg>